<svg xmlns="http://www.w3.org/2000/svg" width="1720" height="726" viewBox="0 0 1720 726" font-family="Segoe UI, Arial, sans-serif">
<defs><linearGradient id="bg" x1="0" y1="0" x2="1" y2="1"><stop offset="0" stop-color="#eef4fb"/><stop offset="1" stop-color="#eef7f4"/></linearGradient><filter id="sh" x="-20%" y="-20%" width="140%" height="140%"><feDropShadow dx="0" dy="1.5" stdDeviation="2" flood-color="#000" flood-opacity="0.13"/></filter></defs>
<rect x="0" y="0" width="1720" height="726" fill="url(#bg)"/>
<text x="860" y="52" font-size="24" font-weight="700" text-anchor="middle" fill="#1f2430" font-family="Segoe UI, Arial, sans-serif">Base Data — What We Integrated, and From Where</text>
<text x="860" y="80" font-size="13.5" font-weight="400" text-anchor="middle" fill="#5b6472" font-family="Segoe UI, Arial, sans-serif">Five source systems unified in OneLake — color-coded by origin, so you can see which system owns each slice of data before the demos</text>
<rect x="1360" y="96" width="304" height="34" rx="17" fill="#ffffff" stroke="#cfe0ee" stroke-width="1.6" filter="url(#sh)"/>
<text x="1378" y="118" font-size="12" font-weight="700" text-anchor="start" fill="#5b6472" font-family="Segoe UI, Arial, sans-serif">Color = source system</text>
<circle cx="1548" cy="113" r="7" fill="#2AA79B"/>
<circle cx="1570" cy="113" r="7" fill="#C0392B"/>
<circle cx="1592" cy="113" r="7" fill="#3B7DD8"/>
<circle cx="1614" cy="113" r="7" fill="#E8912A"/>
<circle cx="1636" cy="113" r="7" fill="#8657C6"/>
<rect x="58" y="200" width="304" height="328" rx="12" fill="#ffffff" stroke="#2AA79B" stroke-width="1.8" filter="url(#sh)"/><path d="M58,212 Q58,200 70,200 H350 Q362,200 362,212 V250 H58 Z" fill="#2AA79B"/><rect x="72" y="212" width="46" height="26" rx="7" fill="#ffffff" stroke="#ffffff" stroke-width="1.6"/><text x="95" y="230" font-size="12.5" font-weight="800" text-anchor="middle" fill="#2AA79B" font-family="Segoe UI, Arial, sans-serif">FN</text><text x="128" y="231" font-size="14.5" font-weight="700" text-anchor="start" fill="#ffffff" font-family="Segoe UI, Arial, sans-serif">Fabric Native</text><rect x="72" y="262" width="276" height="24" rx="12" fill="#e3f5f2" stroke="#2AA79B" stroke-width="1.1"/><text x="210.0" y="278" font-size="11" font-weight="700" text-anchor="middle" fill="#2AA79B" font-family="Segoe UI, Arial, sans-serif">Native lakehouse · gold model</text><text x="74" y="308" font-size="12.5" font-weight="700" text-anchor="start" fill="#1f2430" font-family="Segoe UI, Arial, sans-serif">Project controls (core)</text><circle cx="80" cy="328" r="3.2" fill="#2AA79B"/><text x="90" y="332" font-size="12" font-weight="400" text-anchor="start" fill="#33404f" font-family="Segoe UI, Arial, sans-serif">Projects &amp; portfolio</text><circle cx="80" cy="352" r="3.2" fill="#2AA79B"/><text x="90" y="356" font-size="12" font-weight="400" text-anchor="start" fill="#33404f" font-family="Segoe UI, Arial, sans-serif">Work Breakdown Structure</text><circle cx="80" cy="376" r="3.2" fill="#2AA79B"/><text x="90" y="380" font-size="12" font-weight="400" text-anchor="start" fill="#33404f" font-family="Segoe UI, Arial, sans-serif">Schedule activities &amp; float</text><circle cx="80" cy="400" r="3.2" fill="#2AA79B"/><text x="90" y="404" font-size="12" font-weight="400" text-anchor="start" fill="#33404f" font-family="Segoe UI, Arial, sans-serif">Engineering changes</text><circle cx="80" cy="424" r="3.2" fill="#2AA79B"/><text x="90" y="428" font-size="12" font-weight="400" text-anchor="start" fill="#33404f" font-family="Segoe UI, Arial, sans-serif">Bids / RFQs</text><circle cx="80" cy="448" r="3.2" fill="#2AA79B"/><text x="90" y="452" font-size="12" font-weight="400" text-anchor="start" fill="#33404f" font-family="Segoe UI, Arial, sans-serif">Technical evaluations</text><rect x="70" y="476" width="280" height="40" rx="9" fill="#e3f5f2" stroke="none" stroke-width="1.6"/><text x="80" y="494" font-size="9.5" font-weight="700" text-anchor="start" fill="#2AA79B" font-family="Segoe UI, Arial, sans-serif">Falcon hero tie-in</text><text x="80" y="509" font-size="10.8" font-weight="400" text-anchor="start" fill="#4a5563" font-family="Segoe UI, Arial, sans-serif">Project Falcon (PRJ-001) · change EC-1207</text>
<rect x="382" y="200" width="304" height="328" rx="12" fill="#ffffff" stroke="#C0392B" stroke-width="1.8" filter="url(#sh)"/><path d="M382,212 Q382,200 394,200 H674 Q686,200 686,212 V250 H382 Z" fill="#C0392B"/><rect x="396" y="212" width="46" height="26" rx="7" fill="#ffffff" stroke="#ffffff" stroke-width="1.6"/><text x="419" y="230" font-size="12.5" font-weight="800" text-anchor="middle" fill="#C0392B" font-family="Segoe UI, Arial, sans-serif">SAP</text><text x="452" y="231" font-size="14.5" font-weight="700" text-anchor="start" fill="#ffffff" font-family="Segoe UI, Arial, sans-serif">SAP</text><rect x="396" y="262" width="276" height="24" rx="12" fill="#fbe9e7" stroke="#C0392B" stroke-width="1.1"/><text x="534.0" y="278" font-size="11" font-weight="700" text-anchor="middle" fill="#C0392B" font-family="Segoe UI, Arial, sans-serif">ELT pipeline → landing</text><text x="398" y="308" font-size="12.5" font-weight="700" text-anchor="start" fill="#1f2430" font-family="Segoe UI, Arial, sans-serif">Suppliers, POs &amp; cost</text><circle cx="404" cy="328" r="3.2" fill="#C0392B"/><text x="414" y="332" font-size="12" font-weight="400" text-anchor="start" fill="#33404f" font-family="Segoe UI, Arial, sans-serif">Suppliers (vendor master)</text><circle cx="404" cy="352" r="3.2" fill="#C0392B"/><text x="414" y="356" font-size="12" font-weight="400" text-anchor="start" fill="#33404f" font-family="Segoe UI, Arial, sans-serif">Purchase orders (MM)</text><circle cx="404" cy="376" r="3.2" fill="#C0392B"/><text x="414" y="380" font-size="12" font-weight="400" text-anchor="start" fill="#33404f" font-family="Segoe UI, Arial, sans-serif">Cost &amp; budget (FI)</text><circle cx="404" cy="400" r="3.2" fill="#C0392B"/><text x="414" y="404" font-size="12" font-weight="400" text-anchor="start" fill="#33404f" font-family="Segoe UI, Arial, sans-serif">Forecast vs. budget</text><circle cx="404" cy="424" r="3.2" fill="#C0392B"/><text x="414" y="428" font-size="12" font-weight="400" text-anchor="start" fill="#33404f" font-family="Segoe UI, Arial, sans-serif">Earned value</text><circle cx="404" cy="448" r="3.2" fill="#C0392B"/><text x="414" y="452" font-size="12" font-weight="400" text-anchor="start" fill="#33404f" font-family="Segoe UI, Arial, sans-serif">Long-lead PO status</text><rect x="394" y="476" width="280" height="40" rx="9" fill="#fbe9e7" stroke="none" stroke-width="1.6"/><text x="404" y="494" font-size="9.5" font-weight="700" text-anchor="start" fill="#C0392B" font-family="Segoe UI, Arial, sans-serif">Falcon hero tie-in</text><text x="404" y="509" font-size="10.8" font-weight="400" text-anchor="start" fill="#4a5563" font-family="Segoe UI, Arial, sans-serif">Late long-lead PO drives Falcon risk</text>
<rect x="706" y="200" width="304" height="328" rx="12" fill="#ffffff" stroke="#3B7DD8" stroke-width="1.8" filter="url(#sh)"/><path d="M706,212 Q706,200 718,200 H998 Q1010,200 1010,212 V250 H706 Z" fill="#3B7DD8"/><rect x="720" y="212" width="46" height="26" rx="7" fill="#ffffff" stroke="#ffffff" stroke-width="1.6"/><text x="743" y="230" font-size="12.5" font-weight="800" text-anchor="middle" fill="#3B7DD8" font-family="Segoe UI, Arial, sans-serif">BQ</text><text x="776" y="231" font-size="14.5" font-weight="700" text-anchor="start" fill="#ffffff" font-family="Segoe UI, Arial, sans-serif">BigQuery</text><rect x="720" y="262" width="276" height="24" rx="12" fill="#e6f1fb" stroke="#3B7DD8" stroke-width="1.1"/><text x="858.0" y="278" font-size="11" font-weight="700" text-anchor="middle" fill="#3B7DD8" font-family="Segoe UI, Arial, sans-serif">Mirroring → shortcut</text><text x="722" y="308" font-size="12.5" font-weight="700" text-anchor="start" fill="#1f2430" font-family="Segoe UI, Arial, sans-serif">Work-order management</text><circle cx="728" cy="328" r="3.2" fill="#3B7DD8"/><text x="738" y="332" font-size="12" font-weight="400" text-anchor="start" fill="#33404f" font-family="Segoe UI, Arial, sans-serif">Equipment / assets</text><circle cx="728" cy="352" r="3.2" fill="#3B7DD8"/><text x="738" y="356" font-size="12" font-weight="400" text-anchor="start" fill="#33404f" font-family="Segoe UI, Arial, sans-serif">Work orders</text><circle cx="728" cy="376" r="3.2" fill="#3B7DD8"/><text x="738" y="380" font-size="12" font-weight="400" text-anchor="start" fill="#33404f" font-family="Segoe UI, Arial, sans-serif">WO tasks</text><circle cx="728" cy="400" r="3.2" fill="#3B7DD8"/><text x="738" y="404" font-size="12" font-weight="400" text-anchor="start" fill="#33404f" font-family="Segoe UI, Arial, sans-serif">WO labor</text><circle cx="728" cy="424" r="3.2" fill="#3B7DD8"/><text x="738" y="428" font-size="12" font-weight="400" text-anchor="start" fill="#33404f" font-family="Segoe UI, Arial, sans-serif">WO materials (→ supplier)</text><circle cx="728" cy="448" r="3.2" fill="#3B7DD8"/><text x="738" y="452" font-size="12" font-weight="400" text-anchor="start" fill="#33404f" font-family="Segoe UI, Arial, sans-serif">WO status history</text><rect x="718" y="476" width="280" height="40" rx="9" fill="#e6f1fb" stroke="none" stroke-width="1.6"/><text x="728" y="494" font-size="9.5" font-weight="700" text-anchor="start" fill="#3B7DD8" font-family="Segoe UI, Arial, sans-serif">Falcon hero tie-in</text><text x="728" y="509" font-size="10.8" font-weight="400" text-anchor="start" fill="#4a5563" font-family="Segoe UI, Arial, sans-serif">Emergency WO-900001 on ET-1001</text>
<rect x="1030" y="200" width="304" height="328" rx="12" fill="#ffffff" stroke="#E8912A" stroke-width="1.8" filter="url(#sh)"/><path d="M1030,212 Q1030,200 1042,200 H1322 Q1334,200 1334,212 V250 H1030 Z" fill="#E8912A"/><rect x="1044" y="212" width="46" height="26" rx="7" fill="#ffffff" stroke="#ffffff" stroke-width="1.6"/><text x="1067" y="230" font-size="12.5" font-weight="800" text-anchor="middle" fill="#E8912A" font-family="Segoe UI, Arial, sans-serif">S3</text><text x="1100" y="231" font-size="14.5" font-weight="700" text-anchor="start" fill="#ffffff" font-family="Segoe UI, Arial, sans-serif">Amazon S3</text><rect x="1044" y="262" width="276" height="24" rx="12" fill="#fdefdc" stroke="#E8912A" stroke-width="1.1"/><text x="1182.0" y="278" font-size="11" font-weight="700" text-anchor="middle" fill="#E8912A" font-family="Segoe UI, Arial, sans-serif">Shortcut (Delta Lake)</text><text x="1046" y="308" font-size="12.5" font-weight="700" text-anchor="start" fill="#1f2430" font-family="Segoe UI, Arial, sans-serif">Permits &amp; inspections</text><circle cx="1052" cy="328" r="3.2" fill="#E8912A"/><text x="1062" y="332" font-size="12" font-weight="400" text-anchor="start" fill="#33404f" font-family="Segoe UI, Arial, sans-serif">Permitting authorities</text><circle cx="1052" cy="352" r="3.2" fill="#E8912A"/><text x="1062" y="356" font-size="12" font-weight="400" text-anchor="start" fill="#33404f" font-family="Segoe UI, Arial, sans-serif">Permits</text><circle cx="1052" cy="376" r="3.2" fill="#E8912A"/><text x="1062" y="380" font-size="12" font-weight="400" text-anchor="start" fill="#33404f" font-family="Segoe UI, Arial, sans-serif">Inspections</text><circle cx="1052" cy="400" r="3.2" fill="#E8912A"/><text x="1062" y="404" font-size="12" font-weight="400" text-anchor="start" fill="#33404f" font-family="Segoe UI, Arial, sans-serif">Code violations</text><circle cx="1052" cy="424" r="3.2" fill="#E8912A"/><text x="1062" y="428" font-size="12" font-weight="400" text-anchor="start" fill="#33404f" font-family="Segoe UI, Arial, sans-serif">Permit fees</text><circle cx="1052" cy="448" r="3.2" fill="#E8912A"/><text x="1062" y="452" font-size="12" font-weight="400" text-anchor="start" fill="#33404f" font-family="Segoe UI, Arial, sans-serif">Environmental readings</text><rect x="1042" y="476" width="280" height="40" rx="9" fill="#fdefdc" stroke="none" stroke-width="1.6"/><text x="1052" y="494" font-size="9.5" font-weight="700" text-anchor="start" fill="#E8912A" font-family="Segoe UI, Arial, sans-serif">Falcon hero tie-in</text><text x="1052" y="509" font-size="10.8" font-weight="400" text-anchor="start" fill="#4a5563" font-family="Segoe UI, Arial, sans-serif">Failed inspection INS-900001 + violation</text>
<rect x="1354" y="200" width="304" height="328" rx="12" fill="#ffffff" stroke="#8657C6" stroke-width="1.8" filter="url(#sh)"/><path d="M1354,212 Q1354,200 1366,200 H1646 Q1658,200 1658,212 V250 H1354 Z" fill="#8657C6"/><rect x="1368" y="212" width="46" height="26" rx="7" fill="#ffffff" stroke="#ffffff" stroke-width="1.6"/><text x="1391" y="230" font-size="12.5" font-weight="800" text-anchor="middle" fill="#8657C6" font-family="Segoe UI, Arial, sans-serif">SQL</text><text x="1424" y="231" font-size="14.5" font-weight="700" text-anchor="start" fill="#ffffff" font-family="Segoe UI, Arial, sans-serif">SQL Server</text><rect x="1368" y="262" width="276" height="24" rx="12" fill="#efe7f9" stroke="#8657C6" stroke-width="1.1"/><text x="1506.0" y="278" font-size="11" font-weight="700" text-anchor="middle" fill="#8657C6" font-family="Segoe UI, Arial, sans-serif">Mirroring → shortcut</text><text x="1370" y="308" font-size="12.5" font-weight="700" text-anchor="start" fill="#1f2430" font-family="Segoe UI, Arial, sans-serif">On-prem time clock / labor</text><circle cx="1376" cy="328" r="3.2" fill="#8657C6"/><text x="1386" y="332" font-size="12" font-weight="400" text-anchor="start" fill="#33404f" font-family="Segoe UI, Arial, sans-serif">Employees</text><circle cx="1376" cy="352" r="3.2" fill="#8657C6"/><text x="1386" y="356" font-size="12" font-weight="400" text-anchor="start" fill="#33404f" font-family="Segoe UI, Arial, sans-serif">Crews</text><circle cx="1376" cy="376" r="3.2" fill="#8657C6"/><text x="1386" y="380" font-size="12" font-weight="400" text-anchor="start" fill="#33404f" font-family="Segoe UI, Arial, sans-serif">Cost codes</text><circle cx="1376" cy="400" r="3.2" fill="#8657C6"/><text x="1386" y="404" font-size="12" font-weight="400" text-anchor="start" fill="#33404f" font-family="Segoe UI, Arial, sans-serif">Timesheets</text><circle cx="1376" cy="424" r="3.2" fill="#8657C6"/><text x="1386" y="428" font-size="12" font-weight="400" text-anchor="start" fill="#33404f" font-family="Segoe UI, Arial, sans-serif">Time entries (→ project/WBS)</text><circle cx="1376" cy="448" r="3.2" fill="#8657C6"/><text x="1386" y="452" font-size="12" font-weight="400" text-anchor="start" fill="#33404f" font-family="Segoe UI, Arial, sans-serif">Labor charges</text><rect x="1366" y="476" width="280" height="40" rx="9" fill="#efe7f9" stroke="none" stroke-width="1.6"/><text x="1376" y="494" font-size="9.5" font-weight="700" text-anchor="start" fill="#8657C6" font-family="Segoe UI, Arial, sans-serif">Falcon hero tie-in</text><text x="1376" y="509" font-size="10.8" font-weight="400" text-anchor="start" fill="#4a5563" font-family="Segoe UI, Arial, sans-serif">Saturday overtime crunch on Falcon</text>
<rect x="58" y="560" width="1606" height="76" rx="14" fill="#ffffff" stroke="#cfe0ee" stroke-width="1.6" filter="url(#sh)" fill-opacity="0.92"/>
<circle cx="96" cy="598" r="12" fill="#2E7CC4"/><path d="M88,600 q8,-9 16,0" fill="none" stroke="#fff" stroke-width="2.4"/><path d="M88,605 q8,-9 16,0" fill="none" stroke="#cfe6fb" stroke-width="2"/>
<text x="120" y="592" font-size="15" font-weight="700" text-anchor="start" fill="#2E7CC4" font-family="Segoe UI, Arial, sans-serif">OneLake — one bronze lakehouse, one governance</text>
<text x="120" y="615" font-size="12" font-weight="400" text-anchor="start" fill="#5b6472" font-family="Segoe UI, Arial, sans-serif">Mirroring, shortcuts, and ELT bring every source together with no second copy — all keyed to the same project, WBS, supplier &amp; asset IDs.</text>
<rect x="1146" y="576" width="500" height="44" rx="10" fill="#eef7f4" stroke="#cfe0ee" stroke-width="1.6"/>
<text x="1166" y="594" font-size="10" font-weight="700" text-anchor="start" fill="#5b6472" font-family="Segoe UI, Arial, sans-serif">Ingestion patterns</text>
<text x="1166" y="611" font-size="12" font-weight="600" text-anchor="start" fill="#33404f" font-family="Segoe UI, Arial, sans-serif">Mirroring · Shortcuts · ELT pipeline</text>
<rect x="58" y="656" width="1606" height="48" rx="12" fill="#eef7f4" stroke="#bfe0c8" stroke-width="1.6"/>
<path d="M79,674 L85,680 L79,686" fill="none" stroke="#1f8f84" stroke-width="2.4" stroke-linecap="round" stroke-linejoin="round"/><path d="M87,674 L93,680 L87,686" fill="none" stroke="#1f8f84" stroke-width="2.4" stroke-linecap="round" stroke-linejoin="round"/><path d="M95,674 L101,680 L95,686" fill="none" stroke="#1f8f84" stroke-width="2.4" stroke-linecap="round" stroke-linejoin="round"/>
<text x="118" y="678" font-size="12.5" font-weight="700" text-anchor="start" fill="#1f8f84" font-family="Segoe UI, Arial, sans-serif">Plus a live source:</text>
<text x="262" y="678" font-size="12" font-weight="400" text-anchor="start" fill="#3a5148" font-family="Segoe UI, Arial, sans-serif">equipment commissioning telemetry (IIoT) streams in real time via Eventstream → Eventhouse/KQL — the ET-1001 transformer feed behind the RTI demo.</text>
<text x="118" y="695" font-size="10.8" font-weight="400" text-anchor="start" fill="#5b6472" font-family="Segoe UI, Arial, sans-serif" font-style="italic">See the Real-Time Intelligence diagram for that pipeline.</text>
</svg>